<?xml version="1.0" encoding="utf-8"?>
<!-- Generator: Adobe Illustrator 21.0.0, SVG Export Plug-In . SVG Version: 6.00 Build 0)  -->
<svg version="1.1" id="Layer_1" xmlns="http://www.w3.org/2000/svg" xmlns:xlink="http://www.w3.org/1999/xlink" x="0px" y="0px"
	 viewBox="0 0 252 100" style="enable-background:new 0 0 252 100;" xml:space="preserve">
<style type="text/css">
	.st0{fill:url(#SVGID_1_);}
	.st1{opacity:0.1;fill:url(#SVGID_2_);}
	.st2{opacity:0.1;}
	.st3{fill-rule:evenodd;clip-rule:evenodd;fill:url(#SVGID_3_);}
	.st4{fill-rule:evenodd;clip-rule:evenodd;fill:url(#SVGID_4_);}
	.st5{fill:url(#SVGID_5_);}
	.st6{fill:url(#SVGID_6_);}
	.st7{fill:url(#SVGID_7_);}
	.st8{fill:url(#SVGID_8_);}
	.st9{fill:url(#SVGID_9_);}
	.st10{fill:url(#SVGID_10_);}
	.st11{fill-rule:evenodd;clip-rule:evenodd;fill:#FFFFFF;}
	.st12{fill:#FFFFFF;}
</style>
<!-- <g>
	<linearGradient id="SVGID_1_" gradientUnits="userSpaceOnUse" x1="80" y1="4" x2="177.3736" y2="101.3736">
		<stop  offset="0" style="stop-color:#088A79"/>
		<stop  offset="1" style="stop-color:#017F70"/>
	</linearGradient>
	<rect class="st0" width="252" height="100"/>
</g> -->
<linearGradient id="SVGID_2_" gradientUnits="userSpaceOnUse" x1="111.6346" y1="87.8479" x2="84.3265" y2="60.5399">
	<stop  offset="0" style="stop-color:#000000;stop-opacity:0"/>
	<stop  offset="1" style="stop-color:#000000"/>
</linearGradient>
<polygon class="st1" points="151.1,100 89.9,38.8 78.8,47.8 71.4,40.3 56.6,60.1 96.5,100 "/>
<g class="st2">
	<g>
		<linearGradient id="SVGID_3_" gradientUnits="userSpaceOnUse" x1="74.3717" y1="51.7191" x2="89.7343" y2="51.7191">
			<stop  offset="0" style="stop-color:#000000;stop-opacity:0"/>
			<stop  offset="1" style="stop-color:#000000"/>
		</linearGradient>
		<path class="st3" d="M74.7,63.7c0.8-2.7,3-3,4.5-3h10.6V39.5H79.1c-3.1,0-4.8,1.6-4.8,4.1c0,1.2,0,19.9,0,20.1
			C74.4,63.9,74.6,64,74.7,63.7"/>
		<linearGradient id="SVGID_4_" gradientUnits="userSpaceOnUse" x1="56.5788" y1="51.7191" x2="71.9413" y2="51.7191">
			<stop  offset="0" style="stop-color:#000000;stop-opacity:0"/>
			<stop  offset="1" style="stop-color:#000000"/>
		</linearGradient>
		<path class="st4" d="M71.6,63.7c0.1,0.3,0.3,0.2,0.3,0c0-0.2,0-18.9,0-20.1c0-2.5-1.6-4.1-4.8-4.1H56.6v21.2h10.6
			C68.5,60.8,70.9,61.1,71.6,63.7"/>
	</g>
	<g>
		<g>
			<linearGradient id="SVGID_5_" gradientUnits="userSpaceOnUse" x1="96.5093" y1="50.1517" x2="112.1509" y2="50.1517">
				<stop  offset="0" style="stop-color:#000000;stop-opacity:0"/>
				<stop  offset="1" style="stop-color:#000000"/>
			</linearGradient>
			<path class="st5" d="M100.2,41.1c-1.3,1-2,2.6-2,4.5c0,1.5,0.4,2.8,1.1,3.9c0.7,1,1.7,1.7,3.1,2.2l-5.6,8.8l-0.2,0.4h3.5l5.4-8.7
				h3.8v8.7h2.9V39.5h-6C103.5,39.5,101.5,40,100.2,41.1z M109.2,42.1v7.4h-2.9c-3.5,0-5.1-1.3-5.1-3.9c0-1.3,0.4-2.1,1.2-2.7
				c0.9-0.6,2.1-0.9,3.8-0.9H109.2z"/>
			<linearGradient id="SVGID_6_" gradientUnits="userSpaceOnUse" x1="115.4241" y1="50.1517" x2="131.1827" y2="50.1517">
				<stop  offset="0" style="stop-color:#000000;stop-opacity:0"/>
				<stop  offset="1" style="stop-color:#000000"/>
			</linearGradient>
			<polygon class="st6" points="121.4,49.9 130.8,39.5 127.3,39.5 118.3,49.2 118.3,39.5 115.4,39.5 115.4,60.8 118.3,60.8 
				118.3,50.7 127.5,60.7 127.6,60.8 131.2,60.8 			"/>
		</g>
		<linearGradient id="SVGID_7_" gradientUnits="userSpaceOnUse" x1="149.6533" y1="51.7601" x2="164.1955" y2="51.7601">
			<stop  offset="0" style="stop-color:#000000;stop-opacity:0"/>
			<stop  offset="1" style="stop-color:#000000"/>
		</linearGradient>
		<path class="st7" d="M162.2,60.8l-0.5-2.6h-0.1c-0.9,1.1-1.8,1.9-2.7,2.3s-2,0.6-3.4,0.6c-1.8,0-3.2-0.5-4.2-1.4
			c-1-0.9-1.5-2.2-1.5-4c0-3.7,2.9-5.6,8.8-5.8l3.1-0.1v-1.1c0-1.4-0.3-2.5-0.9-3.2c-0.6-0.7-1.6-1-2.9-1c-1.5,0-3.2,0.5-5.1,1.4
			l-0.8-2.1c0.9-0.5,1.9-0.9,2.9-1.1c1.1-0.3,2.1-0.4,3.2-0.4c2.2,0,3.8,0.5,4.8,1.4c1,1,1.6,2.5,1.6,4.6v12.4H162.2z M156,58.9
			c1.7,0,3.1-0.5,4-1.4c1-0.9,1.5-2.2,1.5-3.9v-1.6l-2.7,0.1c-2.2,0.1-3.8,0.4-4.7,1c-1,0.6-1.4,1.5-1.4,2.8c0,1,0.3,1.7,0.9,2.3
			C154,58.6,154.9,58.9,156,58.9z"/>
		<linearGradient id="SVGID_8_" gradientUnits="userSpaceOnUse" x1="167.4652" y1="51.7435" x2="180.5678" y2="51.7435">
			<stop  offset="0" style="stop-color:#000000;stop-opacity:0"/>
			<stop  offset="1" style="stop-color:#000000"/>
		</linearGradient>
		<path class="st8" d="M175.7,61.1c-2.6,0-4.7-0.8-6.1-2.4c-1.4-1.6-2.2-3.9-2.2-6.9c0-3,0.7-5.4,2.2-7c1.5-1.7,3.5-2.5,6.2-2.5
			c0.9,0,1.7,0.1,2.6,0.3s1.6,0.4,2.1,0.7l-0.8,2.3c-0.6-0.2-1.3-0.4-2-0.6c-0.7-0.2-1.4-0.2-1.9-0.2c-3.7,0-5.5,2.3-5.5,7
			c0,2.2,0.4,3.9,1.3,5.1c0.9,1.2,2.2,1.8,4,1.8c1.5,0,3.1-0.3,4.6-1v2.4C179.1,60.8,177.6,61.1,175.7,61.1z"/>
		<g>
			<linearGradient id="SVGID_9_" gradientUnits="userSpaceOnUse" x1="182.3187" y1="51.7435" x2="195.4212" y2="51.7435">
				<stop  offset="0" style="stop-color:#000000;stop-opacity:0"/>
				<stop  offset="1" style="stop-color:#000000"/>
			</linearGradient>
			<path class="st9" d="M190.6,61.1c-2.6,0-4.7-0.8-6.1-2.4c-1.4-1.6-2.2-3.9-2.2-6.9c0-3,0.7-5.4,2.2-7c1.5-1.7,3.5-2.5,6.2-2.5
				c0.9,0,1.7,0.1,2.6,0.3c0.9,0.2,1.6,0.4,2.1,0.7l-0.8,2.3c-0.6-0.2-1.3-0.4-2-0.6c-0.7-0.2-1.4-0.2-1.9-0.2c-3.7,0-5.5,2.3-5.5,7
				c0,2.2,0.4,3.9,1.3,5.1c0.9,1.2,2.2,1.8,4,1.8c1.5,0,3.1-0.3,4.6-1v2.4C193.9,60.8,192.4,61.1,190.6,61.1z"/>
		</g>
		<linearGradient id="SVGID_10_" gradientUnits="userSpaceOnUse" x1="131.9705" y1="51.7435" x2="147.0446" y2="51.7435">
			<stop  offset="0" style="stop-color:#000000;stop-opacity:0"/>
			<stop  offset="1" style="stop-color:#000000"/>
		</linearGradient>
		<path class="st10" d="M136.4,42.7c-0.4,5.5-1,9.5-1.7,12.2c-0.7,2.5-1.6,3.8-2.8,3.9l1.8,1.9c0.7-0.3,1.3-0.7,1.8-1.3
			c0.8-1.1,1.5-2.8,2.1-5.1c0.5-2.3,0.9-5.4,1.2-9.3h5.4v15.8h2.8V42.7H136.4z"/>
	</g>
</g>
<g>
	<g>
		<path class="st11" d="M74.7,63c0.8-2.7,3-3,4.5-3h10.6V38.8H79.1c-3.1,0-4.8,1.6-4.8,4.1c0,1.2,0,19.9,0,20.1
			C74.4,63.2,74.6,63.3,74.7,63"/>
		<path class="st11" d="M71.6,63c0.1,0.3,0.3,0.2,0.3,0c0-0.2,0-18.9,0-20.1c0-2.5-1.6-4.1-4.8-4.1H56.6V60h10.6
			C68.5,60,70.9,60.3,71.6,63"/>
	</g>
	<g>
		<g>
			<path class="st12" d="M100.2,40.3c-1.3,1-2,2.6-2,4.5c0,1.5,0.4,2.8,1.1,3.9c0.7,1,1.7,1.7,3.1,2.2l-5.6,8.8l-0.2,0.4h3.5
				l5.4-8.7h3.8v8.7h2.9V38.8h-6C103.5,38.8,101.5,39.3,100.2,40.3z M109.2,41.4v7.4h-2.9c-3.5,0-5.1-1.3-5.1-3.9
				c0-1.3,0.4-2.1,1.2-2.7c0.9-0.6,2.1-0.9,3.8-0.9H109.2z"/>
			<polygon class="st12" points="121.4,49.1 130.8,38.8 127.3,38.8 118.3,48.5 118.3,38.8 115.4,38.8 115.4,60.1 118.3,60.1 
				118.3,49.9 127.5,60 127.6,60.1 131.2,60.1 			"/>
		</g>
		<path class="st12" d="M162.2,60.1l-0.5-2.6h-0.1c-0.9,1.1-1.8,1.9-2.7,2.3c-0.9,0.4-2,0.6-3.4,0.6c-1.8,0-3.2-0.5-4.2-1.4
			c-1-0.9-1.5-2.2-1.5-4c0-3.7,2.9-5.6,8.8-5.8l3.1-0.1v-1.1c0-1.4-0.3-2.5-0.9-3.2c-0.6-0.7-1.6-1-2.9-1c-1.5,0-3.2,0.5-5.1,1.4
			l-0.8-2.1c0.9-0.5,1.9-0.9,2.9-1.1c1.1-0.3,2.1-0.4,3.2-0.4c2.2,0,3.8,0.5,4.8,1.4c1,1,1.6,2.5,1.6,4.6v12.4H162.2z M156,58.2
			c1.7,0,3.1-0.5,4-1.4c1-0.9,1.5-2.2,1.5-3.9v-1.6l-2.7,0.1c-2.2,0.1-3.8,0.4-4.7,1c-1,0.6-1.4,1.5-1.4,2.8c0,1,0.3,1.7,0.9,2.3
			C154,57.9,154.9,58.2,156,58.2z"/>
		<path class="st12" d="M175.7,60.4c-2.6,0-4.7-0.8-6.1-2.4c-1.4-1.6-2.2-3.9-2.2-6.9c0-3,0.7-5.4,2.2-7c1.5-1.7,3.5-2.5,6.2-2.5
			c0.9,0,1.7,0.1,2.6,0.3c0.9,0.2,1.6,0.4,2.1,0.7l-0.8,2.3c-0.6-0.2-1.3-0.4-2-0.6c-0.7-0.2-1.4-0.2-1.9-0.2c-3.7,0-5.5,2.3-5.5,7
			c0,2.2,0.4,3.9,1.3,5.1c0.9,1.2,2.2,1.8,4,1.8c1.5,0,3.1-0.3,4.6-1v2.4C179.1,60.1,177.6,60.4,175.7,60.4z"/>
		<g>
			<path class="st12" d="M190.6,60.4c-2.6,0-4.7-0.8-6.1-2.4c-1.4-1.6-2.2-3.9-2.2-6.9c0-3,0.7-5.4,2.2-7c1.5-1.7,3.5-2.5,6.2-2.5
				c0.9,0,1.7,0.1,2.6,0.3c0.9,0.2,1.6,0.4,2.1,0.7l-0.8,2.3c-0.6-0.2-1.3-0.4-2-0.6c-0.7-0.2-1.4-0.2-1.9-0.2c-3.7,0-5.5,2.3-5.5,7
				c0,2.2,0.4,3.9,1.3,5.1c0.9,1.2,2.2,1.8,4,1.8c1.5,0,3.1-0.3,4.6-1v2.4C193.9,60.1,192.4,60.4,190.6,60.4z"/>
		</g>
		<path class="st12" d="M136.4,42c-0.4,5.5-1,9.5-1.7,12.2c-0.7,2.5-1.6,3.8-2.8,3.9l1.8,1.9c0.7-0.3,1.3-0.7,1.8-1.3
			c0.8-1.1,1.5-2.8,2.1-5.1c0.5-2.3,0.9-5.4,1.2-9.3h5.4v15.8h2.8V42H136.4z"/>
	</g>
</g>
</svg>
